#!OML:ASF I:\Actors\actors\Patient Classification 2\Patient 1\Session 1\actor1.ASF
:FULLY-SPECIFIED
:DEGREES
441
root -0.880549 18.2275 5.33272 0.951341 -7.41706 -5.32814
lowerback 9.75972 -1.05266 1.68302
upperback 3.24424 -1.228 0.605925
thorax -2.12245 -0.614062 -0.179881
lowerneck -0.293582 4.24181 7.10712
upperneck 12.1781 4.75064 5.68824
head 4.09932 2.87516 0.838918
rclavicle -2.14687e-014 6.75868e-015
rhumerus 4.73342 17.3318 -36.7874
rradius 143.936
rwrist -52.9421
rhand 11.9682 -47.0292
rfingers 7.12502
rthumb 36.9906 -73.096
lclavicle -2.14687e-014 6.75868e-015
lhumerus -51.0015 -20.8012 95.457
lradius 86.1918
lwrist 21.0653
lhand -8.19283 -13.589
lfingers 7.12502
lthumb 17.7233 15.6233
rfemur 0 0 0
rtibia 0
rfoot 0 0
rtoes 0
lfemur 16.6696 -3.57055 -12.0053
ltibia -18.7002
lfoot -3.82106 24.1848
ltoes -7.40554
442
root -0.8795 18.2293 5.33116 1.034 -7.37122 -5.43512
lowerback 10.1856 -1.0548 2.08991
upperback 2.93214 -1.17862 0.469815
thorax -2.69 -0.594237 -0.543861
lowerneck -0.162468 4.16808 7.04999
upperneck 12.3358 4.62991 5.94205
head 4.12197 2.82782 0.929533
rclavicle -2.77305e-014 6.36111e-015
rhumerus 3.56775 16.31 -37.2798
rradius 144.217
rwrist -53.3034
rhand 12.0216 -46.741
rfingers 7.12502
rthumb 37.0412 -72.7948
lclavicle -2.77305e-014 6.36111e-015
lhumerus -51.5018 -21.462 95.6383
lradius 86.3165
lwrist 21.0998
lhand -8.07229 -14.5782
lfingers 7.12502
lthumb 17.8393 14.6236
rfemur 0 0 0
rtibia 0
rfoot 0 0
rtoes 0
lfemur 16.5737 -3.49869 -11.866
ltibia -18.735
lfoot -3.71051 24.1165
ltoes -7.54451
443
root -0.878295 18.2313 5.33139 1.09751 -7.2774 -5.51749
lowerback 10.2978 -1.1011 2.29441
upperback 2.81931 -1.21494 0.432127
thorax -2.8746 -0.614914 -0.689995
lowerneck -0.168997 4.11123 6.95307
upperneck 12.4364 4.53149 6.11723
head 4.15192 2.78622 1.00388
rclavicle -3.38928e-014 7.95139e-015
rhumerus 2.83363 14.7833 -37.8993
rradius 143.913
rwrist -53.4177
rhand 11.1116 -46.5618
rfingers 7.12502
rthumb 36.1798 -72.834
lclavicle -3.38928e-014 7.95139e-015
lhumerus -51.6492 -21.8621 95.7957
lradius 86.3895
lwrist 21.0341
lhand -8.28244 -15.0944
lfingers 7.12502
lthumb 17.6371 14.1257
rfemur 0 0 0
rtibia 0
rfoot 0 0
rtoes 0
lfemur 16.5141 -3.5619 -11.7735
ltibia -18.8013
lfoot -3.61934 24.1124
ltoes -7.5436
444
root -0.878156 18.2316 5.3327 1.09225 -7.24999 -5.59008
lowerback 10.2805 -1.19454 2.34058
upperback 2.81334 -1.33329 0.464865
thorax -2.87496 -0.673901 -0.667202
lowerneck -0.209374 4.06818 6.86852
upperneck 12.5578 4.45697 6.18194
head 4.19951 2.7534 1.04175
rclavicle -1.45113e-014 7.95139e-015
rhumerus 2.69171 13.4951 -38.7293
rradius 143.071
rwrist -53.3192
rhand 9.3021 -46.5247
rfingers 7.12502
rthumb 34.4641 -73.2043
lclavicle -1.45113e-014 7.95139e-015
lhumerus -51.725 -21.8553 95.9004
lradius 86.5117
lwrist 20.989
lhand -8.66021 -15.0023
lfingers 7.12502
lthumb 17.2735 14.2501
rfemur 0 0 0
rtibia 0
rfoot 0 0
rtoes 0
lfemur 16.5552 -3.67933 -11.7038
ltibia -18.8643
lfoot -3.62878 24.1979
ltoes -7.28076
445
root -0.879709 18.2308 5.33243 1.05876 -7.38982 -5.65462
lowerback 10.2815 -1.31284 2.3219
upperback 2.78828 -1.49116 0.479508
thorax -2.90534 -0.752701 -0.621054
lowerneck -0.0961538 3.99784 7.0183
upperneck 12.6996 4.37414 6.00014
head 4.238 2.71481 0.953189
rclavicle 2.79292e-014 -2.38542e-015
rhumerus 2.9927 12.9884 -39.7959
rradius 141.84
rwrist -52.3595
rhand 6.8912 -46.3395
rfingers 7.12502
rthumb 32.1721 -73.5108
lclavicle 2.79292e-014 -2.38542e-015
lhumerus -51.9354 -21.4871 95.8972
lradius 86.6342
lwrist 20.9842
lhand -8.94058 -14.972
lfingers 7.12502
lthumb 17.0036 14.3038
rfemur 0 0 0
rtibia 0
rfoot 0 0
rtoes 0
lfemur 16.6427 -3.65472 -11.6398
ltibia -18.874
lfoot -3.68958 24.2811
ltoes -7.16647
446
root -0.883187 18.2292 5.33272 1.02479 -7.7049 -5.6604
lowerback 10.1401 -1.42262 2.16648
upperback 2.84287 -1.65826 0.473719
thorax -2.77159 -0.833982 -0.522738
lowerneck -0.0947558 3.90681 7.3016
upperneck 12.8921 4.26715 5.60155
head 4.32634 2.66495 0.772439
rclavicle 1.18277e-014 -8.74653e-015
rhumerus 3.73722 13.1334 -40.7723
rradius 140.414
rwrist -50.2121
rhand 9.41806 -45.6364
rfingers 7.12502
rthumb 34.5742 -72.2908
lclavicle 1.18277e-014 -8.74653e-015
lhumerus -52.0162 -20.9011 95.7479
lradius 86.6343
lwrist 20.9709
lhand -9.20841 -15.1047
lfingers 7.12502
lthumb 16.7458 14.1931
rfemur 0 0 0
rtibia 0
rfoot 0 0
rtoes 0
lfemur 16.7578 -3.65504 -11.6623
ltibia -18.826
lfoot -3.89976 24.5472
ltoes -7.1613
447
root -0.88712 18.2254 5.33407 0.954878 -8.138 -5.61077
lowerback 9.7566 -1.49753 1.79229
upperback 3.11157 -1.80767 0.544975
thorax -2.27236 -0.903857 -0.235221
lowerneck -0.329019 3.84315 7.28358
upperneck 12.9632 4.18413 5.31555
head 4.40375 2.61623 0.683562
rclavicle 1.64991e-014 -3.18055e-015
rhumerus 4.78894 14.2899 -41.1051
rradius 139.957
rwrist -49.8846
rhand 8.57374 -45.5149
rfingers 7.12502
rthumb 33.7724 -72.3489
lclavicle 1.64991e-014 -3.18055e-015
lhumerus -51.667 -20.2373 95.5439
lradius 86.493
lwrist 20.9573
lhand -9.48618 -15.1864
lfingers 7.12502
lthumb 16.4784 14.1338
rfemur 0 0 0
rtibia 0
rfoot 0 0
rtoes 0
lfemur 16.9297 -3.67576 -11.7604
ltibia -18.7365
lfoot -4.25156 24.9298
ltoes -6.88896
448
root -0.890445 18.2208 5.3363 0.862454 -8.61158 -5.51528
lowerback 10.1647 -1.47767 1.68532
upperback 2.882 -1.78136 0.460577
thorax -2.73402 -0.893784 -0.2509
lowerneck -0.209482 3.63438 7.1689
upperneck 13.1486 3.90024 5.37149
head 4.44046 2.47841 0.711868
rclavicle 4.07509e-014 -1.03368e-014
rhumerus 4.76842 15.942 -41.0715
rradius 140.319
rwrist -50.0004
rhand 9.53741 -45.5219
rfingers 7.12502
rthumb 34.6875 -72.1504
lclavicle 4.07509e-014 -1.03368e-014
lhumerus -52.1328 -19.9936 95.599
lradius 86.4102
lwrist 21.0353
lhand -9.63632 -15.1391
lfingers 7.12502
lthumb 16.3338 14.193
rfemur 0 0 0
rtibia 0
rfoot 0 0
rtoes 0
lfemur 17.111 -3.58944 -11.9025
ltibia -18.6068
lfoot -4.60277 25.2319
ltoes -6.54268
449
root -0.893669 18.2188 5.34058 0.820903 -9.02249 -5.40572
lowerback 9.90785 -1.45082 1.34188
upperback 3.07539 -1.7867 0.524773
thorax -2.38009 -0.894387 -0.00122461
lowerneck -0.423213 3.53398 6.73429
upperneck 13.056 3.76888 5.3928
head 4.4329 2.39361 0.790155
rclavicle -1.63997e-014 -1.19271e-014
rhumerus 5.21504 17.1527 -40.4106
rradius 141.148
rwrist -50.5522
rhand 10.5395 -45.7805
rfingers 7.12502
rthumb 35.6379 -72.1852
lclavicle -1.63997e-014 -1.19271e-014
lhumerus -51.846 -19.7159 95.5753
lradius 86.2819
lwrist 21.1301
lhand -9.6476 -15.1153
lfingers 7.12502
lthumb 16.323 14.2177
rfemur 0 0 0
rtibia 0
rfoot 0 0
rtoes 0
lfemur 17.2101 -3.4097 -12.0388
ltibia -18.4633
lfoot -4.8545 25.3931
ltoes -6.49087
450
root -0.895871 18.2196 5.345 0.840145 -9.26118 -5.30841
lowerback 9.88133 -1.41162 1.30408
upperback 3.05281 -1.7407 0.459557
thorax -2.38937 -0.871498 -0.053182
lowerneck -0.410745 3.41023 6.47945
upperneck 12.9698 3.62563 5.36015
head 4.39034 2.30668 0.814018
rclavicle -1.45113e-014 -9.54166e-015
rhumerus 4.92458 17.9299 -40.044
rradius 142.172
rwrist -51.0555
rhand 11.0792 -45.9082
rfingers 7.12502
rthumb 36.1492 -72.1879
lclavicle -1.45113e-014 -9.54166e-015
lhumerus -51.9034 -19.8395 95.6523
lradius 86.2445
lwrist 21.1823
lhand -9.75334 -15.2576
lfingers 7.12502
lthumb 16.2212 14.0837
rfemur 0 0 0
rtibia 0
rfoot 0 0
rtoes 0
lfemur 17.2059 -3.2553 -12.1436
ltibia -18.3546
lfoot -4.99152 25.4431
ltoes -6.43825
451
root -0.897358 18.2212 5.34742 0.882689 -9.28176 -5.27621
lowerback 9.82604 -1.40551 1.35475
upperback 3.06111 -1.7301 0.416052
thorax -2.35304 -0.865994 -0.12938
lowerneck -0.337528 3.32957 6.34927
upperneck 12.7694 3.56635 5.15772
head 4.30151 2.25521 0.758794
rclavicle 1.46107e-014 1.27222e-014
rhumerus 4.28489 17.852 -40.0367
rradius 143.018
rwrist -51.4331
rhand 11.4144 -45.7558
rfingers 7.12502
rthumb 36.4666 -71.9563
lclavicle 1.46107e-014 1.27222e-014
lhumerus -51.8473 -20.1686 95.7706
lradius 86.2598
lwrist 21.1803
lhand -9.70461 -14.8215
lfingers 7.12502
lthumb 16.2681 14.516
rfemur 0 0 0
rtibia 0
rfoot 0 0
rtoes 0
lfemur 17.1437 -3.26353 -12.1727
ltibia -18.3058
lfoot -5.05461 25.4642
ltoes -6.03846
